  0
SECTION
  2
HEADER
  9
$ACADVER
  1
AC1015
  0
ENDSEC
  0
SECTION
  2
ENTITIES
  0
LINE
  5
30
100
AcDbEntity
  8
WALL
100
AcDbLine
 10
0.0
 20
0.0
 30
0.0
 11
0.0
 21
5300.0
 31
0.0
  0
LINE
  5
31
100
AcDbEntity
  8
WALL
100
AcDbLine
 10
0.0
 20
5300.0
 30
0.0
 11
8000.0
 21
5300.0
 31
0.0
  0
LINE
  5
32
100
AcDbEntity
  8
WALL
100
AcDbLine
 10
8000.0
 20
5300.0
 30
0.0
 11
8000.0
 21
0.0
 31
0.0
  0
LINE
  5
33
100
AcDbEntity
  8
WALL
100
AcDbLine
 10
8000.0
 20
0.0
 30
0.0
 11
0.0
 21
0.0
 31
0.0
  0
LINE
  5
37
100
AcDbEntity
  8
WALL
100
AcDbLine
 10
4000.0
 20
0.0
 30
0.0
 11
4000.0
 21
5300.0
 31
0.0
  0
CIRCLE
  5
34
100
AcDbEntity
  8
COLUMN
100
AcDbCircle
 10
2000.0
 20
2000.0
 30
0.0
 40
200.0
  0
MTEXT
  5
36
100
AcDbEntity
  8
DIM
100
AcDbMText
 10
4000.0
 20
5500.0
 30
0.0
 40
250.0
 41
3000.0
 71
1
  1
GROUND FLOOR PLAN - REV B
  0
ENDSEC
  0
EOF
